PathFileType	4	(X/Y/Z)	D:\TRACE\v60_Jaco2_6-2-23\BothDRS_Motion3_7-v60.trc
DataRate	CameraRate	NumFrames	NumMarkers	Units	OrigDataRate	OrigDataStartFrame	OrigNumFrames
100.00	100.00	      14	9	mm	100.00	2626	      7000
Frame#	Time	front left toe			Front right toe			aft left toe			aft right toe			Arm			FL body			FR body			AL Body			AR Body			
		X1	Y1	Z1	X2	Y2	Z2	X3	Y3	Z3	X4	Y4	Z4	X5	Y5	Z5	X6	Y6	Z6	X7	Y7	Z7	X8	Y8	Z8	X9	Y9	Z9	

2626	26.250	-173.23615	59.87698	-164.71909	215.43851	27.25964	-188.54158	-160.40794	-9.90730	437.61340	192.99464	10.01294	460.64117	33.21478	1109.14551	-524.08685	-55.81942	536.26611	-346.52005	102.32384	530.90912	-345.36035	-56.62175	511.58420	597.65289	94.60012	497.36832	598.82129	
2627	26.260	-173.60703	52.64292	-165.68997	215.86917	26.94266	-188.86235	-160.45903	-9.65658	437.91150	192.70628	2.68699	459.46109	33.68573	1108.70239	-524.98767	-55.63572	535.73712	-346.85101	102.63340	530.34692	-345.03802	-57.15402	511.35269	597.38837	94.16914	497.37091	598.86133	
2628	26.270	-173.85649	46.27275	-166.90300	216.20103	26.83656	-188.95413	-160.47484	-9.01063	437.96771	191.78703	-3.52839	458.08267	34.53648	1108.28699	-525.73865	-55.19921	535.17426	-347.12518	103.51099	529.85626	-345.58539	-57.56075	511.34198	597.14203	93.25373	497.35522	598.82318	
2629	26.280	-174.84956	40.79784	-168.39548	214.84607	26.09842	-189.37057	-159.80125	-8.58113	437.28934	191.33475	-6.55314	455.66901	34.58966	1108.15674	-526.92706	-55.04790	534.72760	-347.55716	103.62663	529.62140	-345.75848	-58.56348	511.38324	596.86957	92.59317	497.32388	598.64014	
2630	26.290	-175.56470	34.45790	-169.82405	215.43805	25.44906	-189.70787	-159.60860	-7.81337	437.02292	192.30136	-7.25555	456.78949	34.91862	1107.83582	-528.10242	-54.47449	534.14807	-347.89639	104.16917	529.05396	-345.99841	-59.25943	511.74988	596.41614	92.02014	497.65805	598.60950	
2631	26.300	-176.30566	28.04466	-171.18445	216.33598	25.30854	-189.33911	-159.16154	-7.06385	436.91324	193.37502	-6.09985	455.20258	35.47475	1107.32544	-529.46307	-54.03006	532.88556	-348.10632	104.98530	527.83569	-345.76968	-59.78022	513.51428	596.19647	91.44847	499.75076	598.44495	
2632	26.310	-176.31760	25.65195	-172.41258	217.80576	25.39119	-189.06604	-158.32709	-6.71918	436.61533	192.71246	-4.71226	456.80563	35.40168	1106.97607	-531.94727	-53.48060	531.63086	-348.43494	105.31212	527.07739	-346.00500	-61.23343	514.87604	595.85333	90.25363	501.45071	598.34912	
2633	26.320	-176.92731	24.30075	-172.87407	216.33688	24.93376	-189.67226	-158.20045	-6.20283	436.31067	192.84721	-3.47023	456.46957	35.77909	1105.78711	-535.10437	-52.59988	532.29968	-348.29950	105.02868	527.55310	-345.62695	-61.56136	516.39728	596.00470	89.45735	502.57642	598.30261	
2634	26.330	-177.48512	23.89636	-171.91135	217.20869	27.82149	-189.39439	-158.46205	-3.33580	435.91858	192.30501	-3.96635	456.61887	35.37048	1104.03723	-538.02423	-52.31802	533.55640	-348.65100	105.92872	528.29120	-345.53259	-62.71929	517.11957	595.35913	88.53263	503.12305	598.40369	
2635	26.340	-176.59296	23.98757	-172.15871	211.53154	31.04540	-187.42355	-156.81378	0.69731	437.50296	192.94702	-4.08459	455.89890	35.61827	1102.39893	-540.33447	-51.78807	534.80127	-348.98459	106.34966	529.64233	-345.75293	-63.64260	517.19977	595.02148	87.82567	503.69852	598.10760	
2636	26.350	-176.12991	23.53243	-173.67682	208.73674	36.65748	-185.24188	-153.25877	7.92446	437.83414	193.64098	-3.40268	455.69650	36.29194	1102.66968	-541.80536	-51.45951	534.96692	-349.57806	106.74333	529.83771	-346.01419	-64.07738	518.17957	594.88599	87.67771	504.25629	597.40375	
2637	26.360	-176.09308	22.73236	-173.92395	207.18843	45.94741	-183.76466	-150.51518	18.31598	438.16388	193.48534	-2.85160	455.81747	37.45179	1104.21008	-542.56805	-50.99475	534.33807	-349.93851	106.98405	529.26093	-346.33365	-63.97355	519.58661	594.79999	87.20345	506.08710	597.70862	
2638	26.370	-175.25896	21.82508	-173.56660	207.06210	57.57642	-184.11209	-148.67224	30.66607	438.02133	194.40906	-1.66890	455.77939	38.28122	1105.69580	-543.40613	-50.92798	533.21747	-350.02451	107.62170	528.34882	-346.71106	-64.14352	520.34259	594.49536	87.76292	506.77573	597.03711	
2639	26.380	-175.25914	21.82813	-173.59735	208.83496	70.25857	-184.77777	-149.78798	43.70977	437.93430	195.10199	-1.50551	455.54437	39.24969	1106.66626	-544.62909	-50.99744	532.56842	-350.24231	107.57697	528.09479	-346.88525	-64.08502	520.51892	594.23340	88.28835	507.29990	596.79138	
